<?xml version="1.0" encoding="UTF-8" standalone="no"?>
<!-- Created with Inkscape (http://www.inkscape.org/) -->

<svg
   xmlns:dc="http://purl.org/dc/elements/1.1/"
   xmlns:cc="http://creativecommons.org/ns#"
   xmlns:rdf="http://www.w3.org/1999/02/22-rdf-syntax-ns#"
   xmlns:svg="http://www.w3.org/2000/svg"
   xmlns="http://www.w3.org/2000/svg"
   xmlns:sodipodi="http://sodipodi.sourceforge.net/DTD/sodipodi-0.dtd"
   xmlns:inkscape="http://www.inkscape.org/namespaces/inkscape"
   width="462.98074"
   height="564.7887"
   viewBox="0 0 122.49699 149.43368"
   version="1.1"
   id="svg848"
   inkscape:version="0.92.2 (unknown)"
   sodipodi:docname="potilivre-logo-branco.svg">
  <defs
     id="defs842" />
  <sodipodi:namedview
     id="base"
     pagecolor="#ffffff"
     bordercolor="#666666"
     borderopacity="1.0"
     inkscape:pageopacity="0.0"
     inkscape:pageshadow="2"
     inkscape:zoom="0.87643402"
     inkscape:cx="231.49036"
     inkscape:cy="282.39436"
     inkscape:document-units="mm"
     inkscape:current-layer="g1540"
     showgrid="false"
     units="px"
     fit-margin-top="0"
     fit-margin-left="0"
     fit-margin-right="0"
     fit-margin-bottom="0"
     inkscape:window-width="1366"
     inkscape:window-height="692"
     inkscape:window-x="0"
     inkscape:window-y="24"
     inkscape:window-maximized="1" />
  <metadata
     id="metadata845">
    <rdf:RDF>
      <cc:Work
         rdf:about="">
        <dc:format>image/svg+xml</dc:format>
        <dc:type
           rdf:resource="http://purl.org/dc/dcmitype/StillImage" />
        <dc:title></dc:title>
      </cc:Work>
    </rdf:RDF>
  </metadata>
  <g
     inkscape:label="fundo"
     inkscape:groupmode="layer"
     id="layer1"
     transform="translate(216.21873,-3.8129272)"
     style="display:none">
    <flowRoot
       transform="matrix(0.26458333,0,0,0.26458333,-216.21873,3.812929)"
       xml:space="preserve"
       id="flowRoot817"
       style="font-style:normal;font-weight:normal;font-size:40px;line-height:125%;font-family:sans-serif;letter-spacing:0px;word-spacing:0px;fill:#000000;fill-opacity:1;stroke:none;stroke-width:1px;stroke-linecap:butt;stroke-linejoin:miter;stroke-opacity:1"><flowRegion
         id="flowRegion819"><rect
           id="rect821"
           width="545.39191"
           height="98.124901"
           x="-37.65258"
           y="480.35565" /></flowRegion><flowPara
         id="flowPara823" /></flowRoot>    <rect
       style="opacity:0.98999999;fill:#ff8e2a;fill-opacity:1;stroke:#ff8e2a;stroke-width:3.83066702;stroke-linejoin:round;stroke-miterlimit:4;stroke-dasharray:none;stroke-opacity:1"
       id="rect1505"
       width="118.66632"
       height="145.60301"
       x="-214.30339"
       y="5.7282596" />
  </g>
  <g
     inkscape:groupmode="layer"
     id="layer4"
     inkscape:label="p"
     style="display:none">
    <g
       id="g4674"
       transform="matrix(0.24507888,0,0,0.24507888,-73.632442,74.506234)"
       style="fill:#000000;fill-opacity:1">
      <path
         d="m 575.1814,-59.668349 h -61.12972 q -34.50125,0 -54.35354,-15.171581 -19.87467,-15.361225 -23.27801,-44.18723 -3.42573,-29.01564 12.84408,-44.18722 16.26983,-15.17158 50.77108,-15.17158 h 61.12973 z m 108.01664,144.12999 -2.37338,-20.102343 h -43.99488 l -28.6597,-242.745258 h 43.99487 l -2.39577,-20.29199 H 486.29347 q -51.86764,0 -79.64845,21.61951 -27.8032,21.42985 -23.48185,58.03128 4.29895,36.411796 37.18477,58.031296 32.88582,21.619501 84.75346,21.619501 h 72.47578 l 12.24754,103.735661 h -53.48851 l 2.37339,20.102343 z"
         style="font-style:normal;font-variant:normal;font-weight:normal;font-stretch:normal;font-size:340.6053772px;line-height:1.25;font-family:'DejaVu Serif';-inkscape-font-specification:'DejaVu Serif';letter-spacing:0px;word-spacing:0px;fill:#1a1a1a;fill-opacity:1;stroke:none"
         id="path826"
         inkscape:connector-curvature="0" />
    </g>
  </g>
  <g
     inkscape:label="p branco"
     id="g1540"
     inkscape:groupmode="layer">
    <g
       style="fill:#ffffff;fill-opacity:1"
       transform="matrix(0.24507888,0,0,0.24507888,-73.632442,74.506234)"
       id="g1538">
      <path
         inkscape:connector-curvature="0"
         id="path1536"
         style="font-style:normal;font-variant:normal;font-weight:normal;font-stretch:normal;font-size:340.6053772px;line-height:1.25;font-family:'DejaVu Serif';-inkscape-font-specification:'DejaVu Serif';letter-spacing:0px;word-spacing:0px;fill:#ffffff;fill-opacity:1;stroke:none"
         d="m 575.1814,-59.668349 h -61.12972 q -34.50125,0 -54.35354,-15.171581 -19.87467,-15.361225 -23.27801,-44.18723 -3.42573,-29.01564 12.84408,-44.18722 16.26983,-15.17158 50.77108,-15.17158 h 61.12973 z m 108.01664,144.12999 -2.37338,-20.102343 h -43.99488 l -28.6597,-242.745258 h 43.99487 l -2.39577,-20.29199 H 486.29347 q -51.86764,0 -79.64845,21.61951 -27.8032,21.42985 -23.48185,58.03128 4.29895,36.411796 37.18477,58.031296 32.88582,21.619501 84.75346,21.619501 h 72.47578 l 12.24754,103.735661 h -53.48851 l 2.37339,20.102343 z" />
    </g>
  </g>
  <g
     inkscape:groupmode="layer"
     id="layer3"
     inkscape:label="circulo"
     style="display:none">
    <path
       inkscape:connector-curvature="0"
       id="circle819"
       d="M 61.248798,-1.0685227e-7 C 27.496318,-1.0685227e-7 -4.7541912e-6,27.495704 -4.7541912e-6,61.248187 -4.7541912e-6,95.000676 27.496318,122.49698 61.248798,122.49698 c 33.752465,0 61.248192,-27.496314 61.248192,-61.248793 C 122.49699,27.495706 95.001263,-1.0685226e-7 61.248798,-1.0685227e-7 Z m 0,12.49981210685227 c 26.99716,0 48.748392,21.75121 48.748392,48.748375 0,26.997169 -21.751232,48.748973 -48.748392,48.748973 -26.997157,0 -48.749001,-21.751804 -48.749001,-48.748973 0,-26.997165 21.751844,-48.748375 48.749001,-48.748375 z"
       style="color:#000000;font-style:normal;font-variant:normal;font-weight:normal;font-stretch:normal;font-size:medium;line-height:normal;font-family:sans-serif;text-indent:0;text-align:start;text-decoration:none;text-decoration-line:none;letter-spacing:normal;word-spacing:normal;text-transform:none;writing-mode:lr-tb;direction:ltr;baseline-shift:baseline;text-anchor:start;display:inline;overflow:visible;visibility:visible;fill:#1a1a1a;fill-opacity:1;fill-rule:nonzero;stroke:none;stroke-width:0.24507889;enable-background:accumulate" />
  </g>
  <g
     inkscape:label="circulo branco"
     id="g1534"
     inkscape:groupmode="layer">
    <path
       style="color:#000000;font-style:normal;font-variant:normal;font-weight:normal;font-stretch:normal;font-size:medium;line-height:normal;font-family:sans-serif;text-indent:0;text-align:start;text-decoration:none;text-decoration-line:none;letter-spacing:normal;word-spacing:normal;text-transform:none;writing-mode:lr-tb;direction:ltr;baseline-shift:baseline;text-anchor:start;display:inline;overflow:visible;visibility:visible;fill:#ffffff;fill-opacity:1;fill-rule:nonzero;stroke:none;stroke-width:0.24507889;enable-background:accumulate"
       d="M 61.248798,-1.0685227e-7 C 27.496318,-1.0685227e-7 -4.7541912e-6,27.495704 -4.7541912e-6,61.248187 -4.7541912e-6,95.000676 27.496318,122.49698 61.248798,122.49698 c 33.752465,0 61.248192,-27.496314 61.248192,-61.248793 C 122.49699,27.495706 95.001263,-1.0685226e-7 61.248798,-1.0685227e-7 Z m 0,12.49981210685227 c 26.99716,0 48.748392,21.75121 48.748392,48.748375 0,26.997169 -21.751232,48.748973 -48.748392,48.748973 -26.997157,0 -48.749001,-21.751804 -48.749001,-48.748973 0,-26.997165 21.751844,-48.748375 48.749001,-48.748375 z"
       id="path1532"
       inkscape:connector-curvature="0" />
  </g>
  <g
     inkscape:groupmode="layer"
     id="layer2"
     inkscape:label="PotiLivre"
     style="display:none">
    <text
       inkscape:export-ydpi="90"
       inkscape:export-xdpi="90"
       inkscape:export-filename="/home/asegundo/Documents/CamisetaPotilivrePreta.png"
       id="text3031"
       y="145.89172"
       x="11.053471"
       style="font-style:normal;font-weight:normal;font-size:2.94094658px;line-height:0%;font-family:sans-serif;letter-spacing:0px;word-spacing:0px;fill:#1a1a1a;fill-opacity:1;stroke:none;stroke-width:0.24507889"
       xml:space="preserve"><tspan
         id="tspan3014"
         style="font-style:normal;font-variant:normal;font-weight:normal;font-stretch:normal;font-size:21.97574806px;line-height:1.25;font-family:'DejaVu Serif';-inkscape-font-specification:'DejaVu Serif';fill:#1a1a1a;fill-opacity:1;stroke-width:0.24507889"
         y="145.89172"
         x="11.053471"
         sodipodi:role="line">PotiLivre</tspan></text>
  </g>
  <g
     inkscape:label="PotiLivre branco"
     id="g1530"
     inkscape:groupmode="layer"
     style="display:inline">
    <text
       xml:space="preserve"
       style="font-style:normal;font-weight:normal;font-size:2.94094658px;line-height:0%;font-family:sans-serif;letter-spacing:0px;word-spacing:0px;fill:#ffffff;fill-opacity:1;stroke:none;stroke-width:0.24507889"
       x="11.053471"
       y="145.89172"
       id="text1528"
       inkscape:export-filename="/home/asegundo/Documents/CamisetaPotilivrePreta.png"
       inkscape:export-xdpi="90"
       inkscape:export-ydpi="90"><tspan
         sodipodi:role="line"
         x="11.053471"
         y="145.89172"
         style="font-style:normal;font-variant:normal;font-weight:normal;font-stretch:normal;font-size:21.97574806px;line-height:1.25;font-family:'DejaVu Serif';-inkscape-font-specification:'DejaVu Serif';fill:#ffffff;fill-opacity:1;stroke-width:0.24507889"
         id="tspan1526">PotiLivre</tspan></text>
  </g>
</svg>
